<?xml version="1.0" standalone="no"?>
<!DOCTYPE svg PUBLIC "-//W3C//DTD SVG 20010904//EN"
 "http://www.w3.org/TR/2001/REC-SVG-20010904/DTD/svg10.dtd">
<svg version="1.0" xmlns="http://www.w3.org/2000/svg"
 width="1024.000000pt" height="1024.000000pt" viewBox="0 0 1024.000000 1024.000000"
 preserveAspectRatio="xMidYMid meet">
<metadata>
Created by potrace 1.14, written by Peter Selinger 2001-2017
</metadata>
<g transform="translate(0.000000,1024.000000) scale(0.100000,-0.100000)"
fill="#000000" stroke="none">
<path d="M7316 9698 c-35 -50 -7 -105 47 -94 38 8 37 6 44 50 3 22 1 42 -7 51
-19 23 -66 19 -84 -7z"/>
<path d="M5872 9693 c5 -25 28 -28 28 -4 0 12 -6 21 -16 21 -9 0 -14 -7 -12
-17z"/>
<path d="M6563 9605 c-30 -21 -51 -89 -33 -110 34 -41 100 0 100 63 0 58 -26
76 -67 47z"/>
<path d="M4587 9396 c-3 -8 1 -22 8 -33 18 -24 36 -6 24 25 -9 25 -24 29 -32
8z"/>
<path d="M7554 9323 c-14 -21 -55 -83 -91 -138 -152 -234 -232 -359 -321 -508
-72 -121 -103 -164 -133 -184 -46 -30 -48 -44 -12 -73 l27 -21 18 23 c22 28
128 187 128 192 0 6 212 348 319 515 103 161 121 193 121 216 0 27 -30 16 -56
-22z"/>
<path d="M5860 9222 c0 -12 19 -26 26 -19 2 2 -2 10 -11 17 -9 8 -15 8 -15 2z"/>
<path d="M6212 8985 c-17 -52 -83 -233 -146 -402 -63 -170 -157 -427 -209
-573 -111 -311 -164 -449 -178 -466 -16 -19 38 -31 56 -13 29 32 171 402 355
929 38 107 86 246 109 308 51 143 74 252 61 286 -5 14 -11 26 -14 26 -2 0 -18
-43 -34 -95z"/>
<path d="M4530 9020 c0 -5 5 -10 11 -10 5 0 7 5 4 10 -3 6 -8 10 -11 10 -2 0
-4 -4 -4 -10z"/>
<path d="M9425 8882 c-136 -86 -388 -269 -960 -699 -291 -219 -379 -299 -515
-468 -112 -139 -150 -165 -305 -204 -123 -30 -367 -78 -495 -96 -63 -9 -151
-26 -195 -37 -141 -36 -133 -36 -94 6 19 21 60 74 91 119 31 45 66 93 76 107
40 53 172 251 245 368 89 141 123 207 128 242 4 23 1 25 -33 25 -37 0 -40 -3
-243 -260 -207 -261 -336 -444 -414 -587 -38 -69 -43 -86 -48 -165 -7 -108 6
-495 17 -513 7 -11 27 -12 117 -1 59 7 141 19 182 27 40 8 75 13 78 10 12 -12
22 -569 28 -1581 3 -594 10 -1172 16 -1285 5 -113 8 -214 5 -226 -5 -19 -53
-50 -63 -41 -4 5 -42 147 -98 367 -53 210 -141 614 -160 730 -9 58 -36 229
-60 380 -24 151 -58 400 -75 552 -16 152 -43 370 -59 485 -37 260 -40 293 -51
588 -12 291 -42 482 -75 478 -21 -3 -235 -31 -445 -59 -69 -9 -126 -18 -128
-19 -1 -1 -22 -139 -47 -306 -61 -416 -161 -1029 -189 -1169 -139 -667 -182
-884 -212 -1055 -19 -110 -42 -225 -51 -255 -8 -30 -19 -69 -23 -86 -4 -16 -4
-167 1 -335 7 -294 22 -456 40 -428 4 7 6 16 3 20 -10 16 167 62 375 98 l154
27 -2 119 c-2 132 15 580 25 660 l6 51 95 11 c53 6 100 16 106 22 21 21 35 11
41 -31 4 -24 45 -205 91 -403 84 -362 165 -742 165 -780 1 -49 3 -49 236 -22
121 14 289 29 374 32 93 4 195 14 255 27 55 11 155 26 223 33 67 7 125 15 129
18 3 3 0 48 -7 99 -10 71 -14 484 -17 1730 l-5 1636 29 5 c15 3 88 16 161 28
85 14 142 29 155 40 22 17 22 22 19 231 -4 264 -15 369 -42 412 -26 43 -25 61
5 122 40 80 271 302 410 393 92 61 83 55 475 350 457 343 562 422 636 476 62
46 89 75 67 75 -4 0 -71 -40 -148 -88z m-3336 -2617 c1 -44 7 -163 15 -265 16
-202 41 -710 41 -830 l0 -75 -84 -28 c-46 -15 -85 -26 -86 -25 -1 2 4 73 11
158 31 372 83 1086 85 1155 0 26 2 27 9 10 5 -11 9 -56 9 -100z"/>
<path d="M8200 8503 c-46 -49 -94 -106 -108 -128 -14 -22 -82 -98 -151 -170
-134 -138 -178 -194 -353 -455 -97 -144 -108 -165 -90 -168 36 -6 80 26 210
153 70 68 150 140 178 162 28 21 75 59 104 85 l54 48 -3 79 c-3 98 8 120 144
291 97 121 115 149 115 174 0 29 -17 17 -100 -71z"/>
<path d="M5105 8410 c27 -12 35 -12 35 0 0 6 -12 10 -27 9 -25 0 -26 -1 -8 -9z"/>
<path d="M4593 8363 c-17 -6 -9 -203 19 -475 21 -200 24 -218 42 -218 18 0 19
8 13 203 -7 213 -22 412 -35 461 -8 31 -18 38 -39 29z"/>
<path d="M10083 8179 c-54 -29 -127 -69 -162 -90 -34 -22 -64 -39 -66 -39 -3
0 -198 -115 -400 -235 -136 -81 -337 -197 -400 -230 -33 -18 -105 -61 -160
-95 -55 -35 -165 -99 -245 -142 -165 -91 -246 -146 -309 -212 -96 -98 -13 -67
260 98 112 67 263 161 334 208 72 46 245 154 385 238 140 84 273 165 295 180
22 15 168 103 325 195 157 92 287 169 289 171 2 2 -7 4 -22 4 -14 0 -70 -23
-124 -51z"/>
<path d="M5308 8080 c-7 -24 -3 -38 8 -28 3 4 4 17 2 30 l-3 23 -7 -25z"/>
<path d="M3670 8056 c0 -8 -3 -21 -6 -30 -4 -10 -1 -16 9 -16 9 0 16 12 19 30
3 20 0 30 -9 30 -7 0 -13 -6 -13 -14z"/>
<path d="M3023 7954 c16 -9 32 -13 35 -9 9 9 -19 25 -43 24 -16 0 -15 -2 8
-15z"/>
<path d="M2537 7915 c-32 -22 -36 -29 -26 -46 8 -16 19 -19 47 -17 36 3 37 4
37 42 0 22 -5 41 -10 43 -6 2 -27 -8 -48 -22z"/>
<path d="M6453 7844 c0 -14 -10 -35 -22 -48 -22 -24 -27 -51 -11 -61 5 -3 16
7 23 22 19 37 32 113 19 113 -5 0 -9 -11 -9 -26z"/>
<path d="M8776 7837 c-8 -32 -7 -67 2 -67 16 0 32 25 32 51 0 34 -26 46 -34
16z"/>
<path d="M5264 7674 c-17 -14 -17 -15 -1 -10 10 3 23 6 28 6 5 0 9 5 9 10 0
14 -13 12 -36 -6z"/>
<path d="M3085 7553 c11 -10 28 -27 38 -38 18 -19 18 -19 3 11 -8 17 -23 34
-31 38 -28 10 -30 7 -10 -11z"/>
<path d="M8136 7515 c-52 -48 -73 -135 -37 -155 49 -26 102 -6 169 63 44 44
44 45 27 71 -17 25 -67 46 -111 46 -12 0 -33 -11 -48 -25z"/>
<path d="M3610 7521 c0 -10 30 -24 37 -17 3 3 2 9 -2 15 -8 13 -35 15 -35 2z"/>
<path d="M4330 7515 c-46 -13 -42 -20 17 -27 30 -4 43 6 43 33 0 10 -1 10 -60
-6z"/>
<path d="M445 7410 c-17 -28 43 -51 89 -34 26 10 18 21 -20 28 -19 4 -41 9
-49 12 -7 3 -16 0 -20 -6z"/>
<path d="M2322 7395 c-26 -57 -9 -101 52 -140 30 -18 30 -18 53 9 28 33 31 86
6 108 -21 18 -78 48 -91 48 -5 0 -14 -11 -20 -25z"/>
<path d="M4656 7327 c-4 -23 -15 -57 -26 -75 -32 -52 -28 -56 51 -48 85 8 89
9 89 45 0 18 -12 38 -37 62 -70 65 -70 65 -77 16z"/>
<path d="M3445 7323 c-53 -11 -75 -26 -75 -50 0 -36 24 -85 57 -116 l29 -27
60 18 c77 23 79 39 17 116 -50 63 -56 66 -88 59z"/>
<path d="M4322 7268 c-16 -16 -15 -28 3 -28 8 0 15 9 15 20 0 23 -2 24 -18 8z"/>
<path d="M9441 7197 c-16 -16 -14 -79 5 -105 26 -38 101 -23 123 25 19 42 14
61 -21 71 -59 18 -95 21 -107 9z"/>
<path d="M910 7105 c0 -3 57 -47 127 -100 183 -136 484 -285 577 -285 38 0 71
23 81 57 5 19 -2 27 -47 52 -143 83 -340 163 -623 252 -87 28 -115 34 -115 24z"/>
<path d="M5370 7100 c-8 -5 -10 -10 -5 -10 6 0 17 5 25 10 8 5 11 10 5 10 -5
0 -17 -5 -25 -10z"/>
<path d="M8310 6976 c-30 -6 -62 -15 -70 -20 -116 -67 -256 -214 -319 -336
-72 -140 -99 -253 -82 -346 25 -137 122 -268 239 -322 50 -23 70 -26 162 -26
128 0 212 25 298 88 206 152 289 368 237 616 -25 119 -90 228 -182 304 -64 54
-163 69 -283 42z"/>
<path d="M3170 6963 c0 -35 34 -123 48 -123 17 0 8 48 -19 103 -21 40 -29 46
-29 20z"/>
<path d="M4010 6933 c0 -31 16 -44 59 -50 39 -5 41 -4 41 21 0 19 -7 29 -26
36 -41 16 -74 12 -74 -7z"/>
<path d="M8972 6848 c-17 -17 -15 -28 6 -28 19 0 42 18 42 32 0 12 -35 9 -48
-4z"/>
<path d="M4911 6794 c-101 -13 -187 -26 -190 -30 -3 -3 -7 -69 -8 -147 -14
-836 -26 -1309 -33 -1392 -14 -154 -30 -684 -33 -1048 -2 -260 1 -327 11 -327
7 0 38 13 70 29 67 33 131 55 139 47 3 -3 11 -102 17 -221 8 -146 16 -219 24
-227 14 -14 61 -14 217 -1 l90 8 3 1035 c3 967 -11 1836 -35 2203 l-6 97 -41
-1 c-23 -1 -124 -12 -225 -25z"/>
<path d="M1998 6743 c6 -2 18 -2 25 0 6 3 1 5 -13 5 -14 0 -19 -2 -12 -5z"/>
<path d="M2940 6700 c0 -5 7 -10 15 -10 8 0 15 5 15 10 0 6 -7 10 -15 10 -8 0
-15 -4 -15 -10z"/>
<path d="M4070 6639 c-36 -6 -184 -30 -330 -54 -292 -49 -388 -62 -690 -101
-113 -14 -206 -27 -208 -29 -2 -2 2 -14 9 -27 11 -18 14 -116 14 -441 l0 -418
120 6 c187 11 254 29 275 73 7 15 19 86 28 157 14 121 30 170 49 151 15 -14
14 -614 -2 -1098 -8 -265 -20 -636 -25 -823 -13 -409 -36 -623 -86 -799 -37
-130 -90 -246 -140 -305 -17 -20 -54 -72 -82 -116 -154 -241 -273 -421 -337
-510 -39 -55 -107 -152 -149 -215 -43 -63 -104 -146 -135 -185 -32 -38 -119
-146 -193 -240 -75 -93 -171 -210 -213 -260 -43 -49 -102 -120 -134 -156 -86
-101 -267 -312 -354 -413 -109 -126 -254 -273 -288 -293 -16 -10 -29 -21 -29
-25 0 -8 53 -38 68 -38 14 0 186 179 303 315 57 66 215 245 350 397 136 153
292 330 347 395 106 127 197 227 358 393 136 141 307 329 383 419 34 41 97
113 140 160 96 105 192 222 318 389 53 70 131 168 172 218 42 49 94 114 116
142 l40 53 48 -6 47 -6 0 128 c0 212 21 1137 25 1142 3 2 75 19 162 38 212 47
279 80 382 189 117 123 183 263 211 444 18 111 25 760 10 879 -14 111 -39 210
-68 267 -33 65 -106 138 -174 174 -59 32 -70 35 -168 36 -58 2 -134 -2 -170
-7z m6 -611 c54 -61 54 -60 54 -332 0 -284 -12 -435 -39 -499 -22 -50 -72 -97
-142 -133 l-51 -25 8 483 c4 266 10 493 15 505 8 21 29 28 95 32 22 1 37 -7
60 -31z"/>
<path d="M1030 6612 c0 -34 -27 -24 290 -116 69 -21 138 -46 153 -57 33 -24
37 -22 43 19 4 24 0 34 -18 46 -13 8 -115 40 -228 70 -113 30 -213 58 -223 62
-14 5 -17 0 -17 -24z"/>
<path d="M9980 6604 c-47 -20 -92 -42 -100 -50 -12 -12 -10 -14 15 -14 34 0
90 13 153 36 34 13 42 20 42 40 0 31 -8 30 -110 -12z"/>
<path d="M2355 6501 c-10 -18 26 -41 66 -41 48 0 50 16 4 36 -40 16 -61 18
-70 5z"/>
<path d="M1675 6377 c-9 -33 -2 -43 45 -67 60 -30 80 -27 80 13 0 47 -18 66
-72 73 -44 6 -47 5 -53 -19z"/>
<path d="M1960 6378 c1 -7 9 -38 20 -68 15 -46 23 -56 44 -58 32 -4 34 15 6
51 -11 14 -20 32 -20 40 0 29 -12 47 -31 47 -10 0 -19 -6 -19 -12z"/>
<path d="M2598 6270 c-149 -60 -233 -122 -323 -238 -160 -207 -217 -374 -218
-637 -1 -132 3 -162 26 -250 62 -235 175 -448 366 -695 100 -128 161 -284 161
-407 0 -143 -93 -351 -221 -498 -77 -89 -129 -181 -129 -231 0 -69 75 -183
232 -354 l77 -83 83 16 c185 37 211 52 333 194 104 122 191 329 219 526 8 56
18 183 22 282 11 311 -22 540 -111 760 -40 98 -170 347 -289 549 -116 198
-112 183 -93 404 30 326 15 704 -27 701 -6 0 -55 -18 -108 -39z"/>
<path d="M9695 6261 c-60 -16 -173 -46 -250 -69 -77 -22 -165 -46 -195 -52
-77 -17 -94 -28 -79 -46 6 -8 23 -14 38 -14 63 0 609 151 623 172 10 17 5 33
-13 35 -8 1 -63 -11 -124 -26z"/>
<path d="M5470 6235 c-8 -9 -9 -20 -3 -27 5 -7 10 -26 12 -43 3 -28 17 -54 24
-44 6 9 -5 129 -13 129 -4 0 -13 -7 -20 -15z"/>
<path d="M1277 6108 c-7 -4 2 -26 27 -63 38 -58 80 -85 131 -85 22 0 25 4 25
35 0 52 -24 103 -52 109 -41 9 -119 11 -131 4z"/>
<path d="M6820 6024 c0 -6 3 -14 7 -18 4 -3 8 -14 9 -24 12 -83 16 -102 23
-98 12 8 -8 119 -24 136 -8 8 -15 10 -15 4z"/>
<path d="M5525 5829 c-11 -30 -1 -94 15 -94 21 0 25 64 6 90 -13 18 -15 18
-21 4z"/>
<path d="M1778 5776 c-16 -38 -4 -56 38 -56 31 0 35 3 29 18 -4 9 -10 27 -12
40 -7 30 -40 29 -55 -2z"/>
<path d="M2 5668 l3 -43 65 -12 c300 -55 1372 -195 1386 -180 2 1 6 21 10 43
l6 41 -128 17 c-71 10 -300 39 -509 66 -209 27 -480 63 -603 80 -123 16 -225
30 -228 30 -3 0 -4 -19 -2 -42z"/>
<path d="M8154 5516 c-38 -20 -80 -47 -93 -60 -23 -24 -23 -26 -7 -50 26 -41
55 -50 146 -50 115 0 130 9 130 78 0 48 -3 57 -31 80 -17 14 -34 26 -39 26 -5
0 -15 2 -22 5 -8 3 -46 -10 -84 -29z"/>
<path d="M7960 5501 c-5 -11 -10 -31 -10 -45 l0 -25 25 23 c27 26 34 66 10 66
-8 0 -19 -9 -25 -19z"/>
<path d="M9940 5459 c-247 -32 -871 -119 -955 -133 -44 -7 -145 -23 -225 -35
-149 -23 -285 -55 -307 -73 -7 -6 -13 -21 -13 -34 0 -22 4 -24 54 -24 112 0
766 89 1323 181 314 51 370 67 406 115 l18 24 -78 -1 c-43 -1 -143 -10 -223
-20z"/>
<path d="M5396 5401 c-10 -16 5 -89 21 -102 12 -11 14 -4 11 46 -3 54 -18 80
-32 56z"/>
<path d="M1780 5276 c0 -14 5 -26 10 -26 6 0 10 9 10 19 0 11 -4 23 -10 26 -6
4 -10 -5 -10 -19z"/>
<path d="M1290 5034 c0 -21 4 -34 11 -32 6 2 10 7 10 11 -1 4 -1 18 -1 32 0
14 -4 25 -10 25 -5 0 -10 -16 -10 -36z"/>
<path d="M6930 4921 c0 -13 29 -35 37 -28 7 8 -15 37 -28 37 -5 0 -9 -4 -9 -9z"/>
<path d="M8357 4849 c-20 -17 -37 -36 -37 -42 0 -7 36 -30 79 -51 77 -38 80
-39 105 -22 28 18 34 54 14 74 -19 19 -57 14 -83 -13 -14 -13 -25 -19 -25 -12
0 7 9 18 20 25 11 7 20 17 20 22 0 12 -37 50 -48 50 -4 0 -24 -14 -45 -31z"/>
<path d="M1000 4688 c-117 -23 -675 -102 -825 -118 -190 -19 -175 -13 -175
-71 l0 -51 48 6 c26 3 117 13 202 21 138 14 720 96 788 111 59 13 61 14 68 60
3 25 3 49 -2 53 -5 4 -52 -1 -104 -11z"/>
<path d="M1594 4536 c-36 -16 -44 -38 -32 -82 14 -55 32 -59 61 -15 34 51 44
90 26 102 -18 11 -18 11 -55 -5z"/>
<path d="M8772 4538 c3 -7 13 -15 24 -17 16 -3 17 -1 5 13 -16 19 -34 21 -29
4z"/>
<path d="M7895 4495 c-47 -17 -77 -50 -113 -125 -21 -44 -27 -74 -30 -148 -6
-120 15 -203 65 -262 43 -50 78 -68 151 -81 84 -14 140 3 203 59 99 89 139
191 119 304 -22 118 -106 235 -186 257 -54 15 -161 13 -209 -4z"/>
<path d="M9330 4451 c8 -4 29 -11 45 -15 19 -4 25 -3 15 3 -8 4 -28 11 -45 15
-19 4 -25 3 -15 -3z"/>
<path d="M9611 4374 c0 -11 3 -14 6 -6 3 7 2 16 -1 19 -3 4 -6 -2 -5 -13z"/>
<path d="M1115 4304 c-5 -2 -104 -22 -220 -44 -611 -119 -824 -161 -857 -170
-36 -10 -38 -13 -38 -52 l0 -41 63 7 c94 11 320 57 709 146 194 45 361 83 371
86 12 4 17 16 17 40 0 33 -13 41 -45 28z"/>
<path d="M2045 4286 c-60 -27 -101 -95 -90 -148 11 -46 86 -91 162 -96 84 -6
110 2 133 41 24 39 25 71 4 134 -25 74 -37 83 -113 83 -36 -1 -79 -7 -96 -14z"/>
<path d="M1534 4234 c-31 -15 -64 -60 -64 -87 0 -46 124 -126 175 -113 32 8
83 52 101 88 23 44 11 94 -26 113 -38 19 -146 19 -186 -1z"/>
<path d="M9704 4165 c22 -17 42 -19 50 -6 7 11 -17 21 -47 21 -22 -1 -22 -1
-3 -15z"/>
<path d="M8564 4145 c-11 -27 4 -45 36 -45 36 0 40 22 8 44 -28 20 -37 20 -44
1z"/>
<path d="M4151 4081 c-14 -26 -14 -31 3 -31 16 0 29 37 16 45 -5 3 -14 -3 -19
-14z"/>
<path d="M1260 3943 c0 -13 0 -26 0 -30 0 -12 23 -9 27 2 2 6 -3 20 -12 30
-14 20 -14 20 -15 -2z"/>
<path d="M1230 3594 c-91 -42 -226 -102 -300 -136 -204 -91 -810 -387 -837
-410 -7 -6 -13 -14 -13 -19 0 -19 48 -7 110 27 60 32 339 160 814 370 103 46
218 100 255 118 36 19 90 45 119 57 37 15 51 26 48 36 -4 8 -6 19 -6 24 0 17
-24 8 -190 -67z"/>
<path d="M4422 3624 c-57 -29 -120 -93 -148 -150 -80 -163 46 -415 194 -388
46 8 100 35 141 70 93 78 118 287 47 394 -45 68 -168 107 -234 74z"/>
<path d="M7830 3623 c0 -19 24 -60 46 -78 107 -90 602 -450 909 -660 55 -37
156 -109 225 -159 104 -75 418 -289 815 -553 105 -70 224 -128 237 -115 7 7 3
15 -13 24 -12 7 -59 37 -103 67 -577 388 -718 484 -881 599 -104 75 -242 172
-305 217 -63 44 -164 119 -225 164 -60 46 -150 111 -200 144 -49 33 -134 95
-188 136 -172 133 -259 198 -288 215 -28 16 -29 16 -29 -1z"/>
<path d="M8300 3609 c0 -5 18 -9 40 -9 22 0 40 4 40 9 0 5 -18 9 -40 9 -22 0
-40 -3 -40 -9z"/>
<path d="M1975 3500 c-9 -30 4 -60 26 -60 23 0 26 35 5 63 -17 22 -23 22 -31
-3z"/>
<path d="M5570 3415 c-13 -16 -16 -227 -5 -330 3 -27 12 -171 20 -320 19 -330
30 -482 51 -692 l17 -163 28 0 29 0 0 248 c-1 583 -38 1242 -72 1264 -21 13
-55 9 -68 -7z"/>
<path d="M1505 3380 c3 -5 11 -10 16 -10 6 0 7 5 4 10 -3 6 -11 10 -16 10 -6
0 -7 -4 -4 -10z"/>
<path d="M9670 3335 c0 -8 7 -15 15 -15 8 0 15 7 15 15 0 8 -7 15 -15 15 -8 0
-15 -7 -15 -15z"/>
<path d="M7392 3210 c-29 -12 -52 -66 -52 -122 0 -48 7 -61 33 -71 19 -7 132
7 200 24 36 9 37 11 37 54 0 60 -29 91 -100 110 -63 17 -85 18 -118 5z"/>
<path d="M6860 3155 c-22 -26 -5 -112 40 -201 64 -126 105 -151 146 -88 28 42
13 171 -28 240 -32 55 -129 84 -158 49z"/>
<path d="M2098 3023 c-108 -122 -555 -560 -758 -745 -63 -57 -183 -157 -265
-223 -83 -66 -226 -180 -319 -255 -176 -142 -262 -208 -292 -226 -17 -10 -16
-13 10 -47 l28 -37 47 27 c100 59 375 253 696 493 413 309 582 431 760 547
105 69 245 162 311 206 l122 81 -40 76 c-79 147 -141 220 -186 220 -5 0 -57
-53 -114 -117z"/>
<path d="M7922 3103 c-6 -20 -9 -40 -6 -45 7 -10 41 -11 48 0 5 9 -16 82 -25
82 -3 0 -11 -16 -17 -37z"/>
<path d="M6573 2993 c-7 -2 -13 -9 -13 -15 0 -12 41 -6 41 7 1 12 -11 15 -28
8z"/>
<path d="M2778 2852 c-31 -20 -84 -53 -119 -72 -91 -52 -348 -261 -514 -419
-80 -77 -251 -249 -381 -383 -287 -295 -788 -793 -1019 -1011 -291 -275 -576
-560 -568 -568 15 -15 64 20 195 143 73 68 204 191 292 273 89 83 211 195 271
250 127 115 216 198 370 345 108 103 196 186 305 285 30 27 145 135 255 240
110 104 256 242 325 305 380 351 681 653 648 650 -2 0 -29 -17 -60 -38z"/>
<path d="M808 2845 c-6 -30 -3 -43 8 -33 3 4 4 19 2 35 l-3 28 -7 -30z"/>
<path d="M8250 2759 c-23 -6 -23 -7 -3 -8 12 -1 28 -4 37 -7 9 -3 16 -2 16 4
0 15 -22 20 -50 11z"/>
<path d="M4726 2738 c-3 -13 -6 -36 -6 -51 0 -22 4 -28 18 -25 13 3 17 13 17
47 0 48 -19 66 -29 29z"/>
<path d="M5207 2702 c-20 -21 -37 -43 -37 -48 0 -19 36 -44 62 -44 35 0 49 21
51 77 2 41 -1 48 -18 51 -13 2 -34 -12 -58 -36z"/>
<path d="M3403 2638 c-6 -7 -26 -44 -45 -83 -19 -38 -52 -101 -73 -140 -20
-38 -80 -153 -132 -255 -52 -102 -98 -189 -103 -195 -4 -5 -65 -122 -135 -260
-212 -414 -388 -734 -478 -868 -37 -56 -38 -59 -20 -73 49 -38 50 -38 89 33
44 81 141 259 178 325 49 90 79 143 136 243 32 55 77 138 100 185 49 97 108
202 156 276 18 27 44 75 58 105 13 30 68 147 121 259 164 347 187 404 175 434
-11 30 -14 31 -27 14z"/>
<path d="M6010 2568 c0 -31 82 -238 94 -238 7 0 -8 46 -49 150 -39 101 -45
112 -45 88z"/>
<path d="M8614 2528 c-7 -12 -4 -15 20 -20 10 -1 21 2 23 8 5 14 -35 26 -43
12z"/>
<path d="M4713 2468 c-6 -7 -27 -98 -47 -203 -62 -323 -114 -561 -171 -790
-55 -222 -56 -239 -14 -228 23 6 34 41 99 303 99 397 189 874 173 916 -6 17
-27 18 -40 2z"/>
<path d="M5292 2450 c0 -19 2 -27 5 -17 2 9 2 25 0 35 -3 9 -5 1 -5 -18z"/>
<path d="M6774 2418 c3 -13 5 -26 5 -30 1 -8 31 -11 31 -4 0 3 -4 16 -10 30
-12 32 -31 34 -26 4z"/>
<path d="M7620 2387 c8 -7 15 -18 15 -26 0 -8 6 -16 13 -18 6 -3 12 2 12 10 0
15 -31 47 -46 47 -5 0 -2 -6 6 -13z"/>
<path d="M3877 2343 c-14 -13 -6 -23 18 -23 16 0 25 6 25 15 0 15 -31 21 -43
8z"/>
<path d="M8728 2018 c-2 -7 -1 -29 2 -48 5 -31 8 -35 34 -33 34 3 48 20 40 48
-10 31 -25 45 -49 45 -13 0 -25 -6 -27 -12z"/>
<path d="M6442 1832 c-12 -2 -20 -8 -17 -13 8 -12 65 -12 65 0 0 12 -20 18
-48 13z"/>
<path d="M7010 1715 c0 -41 2 -45 25 -45 21 0 25 5 25 28 0 26 -25 62 -43 62
-4 0 -7 -20 -7 -45z"/>
<path d="M5310 1611 c-5 -11 -10 -28 -10 -39 0 -28 47 -18 52 12 9 45 -21 65
-42 27z"/>
<path d="M5735 1590 c3 -5 8 -10 11 -10 2 0 4 5 4 10 0 6 -5 10 -11 10 -5 0
-7 -4 -4 -10z"/>
<path d="M4891 1333 c0 -25 1 -26 9 -8 12 27 12 35 0 35 -5 0 -10 -12 -9 -27z"/>
<path d="M6197 1343 c-13 -12 -7 -31 12 -36 23 -6 42 10 34 29 -5 15 -35 19
-46 7z"/>
<path d="M4923 1038 c-14 -18 -22 -67 -12 -73 4 -3 19 -1 33 5 28 10 36 46 14
68 -15 15 -23 15 -35 0z"/>
<path d="M3523 703 c9 -2 23 -2 30 0 6 3 -1 5 -18 5 -16 0 -22 -2 -12 -5z"/>
<path d="M5780 480 c0 -20 5 -30 15 -30 16 0 19 17 9 44 -10 26 -24 18 -24
-14z"/>
</g>
</svg>
